<svg width="894" height="814" viewBox="0 0 894 814" fill="none" xmlns="http://www.w3.org/2000/svg">
<mask id="mask0_1525_8563" style="mask-type:luminance" maskUnits="userSpaceOnUse" x="9" y="0" width="885" height="771">
<path d="M876.987 0H389.285C386.036 37.8599 363.159 108.19 244.311 145.838C76.4611 199.022 -4.90167 268.903 11.7671 392.654C28.4359 516.405 146.359 603.327 306.945 627.633C467.557 651.94 515.873 751.57 649.514 766.101C759.75 778.069 830.388 763.247 893.153 728.584V16.1955C893.153 7.26549 885.915 0 876.96 0H876.987Z" fill="white"/>
</mask>
<g mask="url(#mask0_1525_8563)">
<path d="M876.987 0H389.285C386.036 37.8599 363.159 108.19 244.311 145.838C76.4611 199.022 -4.90167 268.903 11.7671 392.654C28.4359 516.405 146.359 603.327 306.945 627.633C467.557 651.94 515.873 751.57 649.514 766.101C759.75 778.069 830.388 763.247 893.153 728.584V16.1955C893.153 7.26549 885.915 0 876.96 0H876.987Z" fill="#F5F5F5"/>
<path d="M600.67 275.111L512.914 302.35L445.499 262.218C444.152 261.426 444.39 259.392 445.896 258.942C454.058 256.406 462.697 255.719 471.15 256.908L600.643 275.111H600.67Z" fill="#FFBB8A"/>
<path d="M463.621 256.38L526.836 294.002L591.715 273.87L471.176 256.934C468.667 256.591 466.157 256.406 463.621 256.406V256.38Z" fill="#FFBB8A"/>
<path d="M304.937 333.975L303.828 334.319C295.559 336.881 286.631 336.142 278.917 332.231L197.528 291.016C194.226 289.325 190.369 289.008 186.829 290.118L181.176 291.862C180.093 292.205 179.565 293.394 179.987 294.424L209.415 363.645L213.695 373.605L308.134 344.279L304.937 333.975Z" fill="#FFBB8A"/>
<path d="M389.866 377.964L750.9 265.864C771.611 259.444 791.503 250.699 810.258 239.814L857.755 212.232C858.442 211.835 859.076 211.36 859.657 210.805C865.733 204.993 862.352 194.715 854.004 193.658L800.828 186.869C790.261 185.521 779.536 186.446 769.339 189.616L215.438 361.61C214.17 362.007 213.061 362.799 212.242 363.856C209.653 367.317 211.212 372.311 215.333 373.658L224.948 376.802C278.468 394.266 336.109 394.662 389.866 377.964Z" fill="#FFBB8A"/>
<path d="M366.25 364.754L766.565 240.448C789.521 233.315 811.606 223.619 832.369 211.571L859.234 195.957C857.834 194.742 856.064 193.896 853.978 193.632L800.801 186.842C790.235 185.495 779.51 186.419 769.313 189.59L215.412 361.584C214.144 361.98 213.034 362.773 212.215 363.83C210.498 366.128 210.63 369.061 212.11 371.201C263.014 382.403 316.138 380.289 366.223 364.728L366.25 364.754Z" fill="#FBFBFB"/>
<path d="M784.687 203.513L827.376 190.25L800.748 186.763L781.332 192.787C778.374 193.711 776.709 196.855 777.634 199.814C778.559 202.773 781.702 204.438 784.661 203.513H784.687Z" fill="#FFBB8A"/>
<path d="M724.968 226.396L728.349 225.346C729.589 224.961 730.282 223.643 729.897 222.403L728.847 219.022C728.462 217.782 727.145 217.089 725.904 217.474L722.524 218.523C721.284 218.909 720.591 220.226 720.976 221.466L722.025 224.847C722.41 226.088 723.728 226.781 724.968 226.396Z" fill="#FFBB8A"/>
<path d="M701.552 233.784L704.933 232.734C706.173 232.349 706.866 231.031 706.481 229.791L705.431 226.41C705.046 225.17 703.729 224.477 702.489 224.862L699.108 225.911C697.868 226.297 697.175 227.614 697.56 228.854L698.61 232.235C698.995 233.476 700.312 234.169 701.552 233.784Z" fill="#FFBB8A"/>
<path d="M678.129 240.988L681.509 239.938C682.749 239.553 683.443 238.235 683.058 236.995L682.008 233.614C681.623 232.374 680.305 231.681 679.065 232.066L675.685 233.116C674.445 233.501 673.752 234.818 674.137 236.058L675.186 239.44C675.571 240.68 676.889 241.373 678.129 240.988Z" fill="#FFBB8A"/>
<path d="M654.713 248.296L658.094 247.247C659.334 246.862 660.027 245.544 659.642 244.304L658.592 240.923C658.207 239.682 656.89 238.989 655.65 239.374L652.269 240.424C651.029 240.809 650.336 242.127 650.721 243.367L651.771 246.748C652.156 247.988 653.473 248.682 654.713 248.296Z" fill="#FFBB8A"/>
<path d="M631.323 255.465L634.703 254.415C635.943 254.03 636.636 252.713 636.251 251.472L635.202 248.091C634.817 246.851 633.499 246.158 632.259 246.543L628.879 247.593C627.639 247.978 626.945 249.296 627.331 250.536L628.38 253.917C628.765 255.157 630.083 255.85 631.323 255.465Z" fill="#FFBB8A"/>
<path d="M607.907 262.721L611.288 261.671C612.528 261.286 613.221 259.968 612.836 258.728L611.786 255.347C611.401 254.107 610.084 253.414 608.844 253.799L605.463 254.849C604.223 255.234 603.53 256.551 603.915 257.792L604.965 261.173C605.35 262.413 606.667 263.106 607.907 262.721Z" fill="#FFBB8A"/>
<path d="M584.492 270.109L587.872 269.059C589.112 268.674 589.805 267.356 589.42 266.116L588.371 262.735C587.986 261.495 586.668 260.802 585.428 261.187L582.047 262.237C580.807 262.622 580.114 263.939 580.499 265.18L581.549 268.561C581.934 269.801 583.251 270.494 584.492 270.109Z" fill="#FFBB8A"/>
<path d="M561.076 277.391L564.457 276.341C565.697 275.956 566.39 274.639 566.005 273.398L564.955 270.017C564.57 268.777 563.253 268.084 562.012 268.469L558.632 269.519C557.392 269.904 556.699 271.222 557.084 272.462L558.134 275.843C558.519 277.083 559.836 277.776 561.076 277.391Z" fill="#FFBB8A"/>
<path d="M537.66 284.647L541.041 283.597C542.281 283.212 542.974 281.895 542.589 280.654L541.539 277.273C541.154 276.033 539.837 275.34 538.597 275.725L535.216 276.775C533.976 277.16 533.283 278.477 533.668 279.718L534.718 283.099C535.103 284.339 536.42 285.032 537.66 284.647Z" fill="#FFBB8A"/>
<path d="M514.262 291.791L517.643 290.741C518.883 290.356 519.576 289.038 519.191 287.798L518.141 284.417C517.756 283.177 516.439 282.483 515.199 282.868L511.818 283.918C510.578 284.303 509.885 285.621 510.27 286.861L511.32 290.242C511.705 291.482 513.022 292.176 514.262 291.791Z" fill="#FFBB8A"/>
<path d="M490.846 299.073L494.227 298.023C495.467 297.638 496.16 296.32 495.775 295.08L494.726 291.699C494.34 290.459 493.023 289.766 491.783 290.151L488.402 291.201C487.162 291.586 486.469 292.903 486.854 294.143L487.904 297.524C488.289 298.765 489.606 299.458 490.846 299.073Z" fill="#FFBB8A"/>
<path d="M467.431 306.434L470.811 305.385C472.052 304.999 472.745 303.682 472.36 302.442L471.31 299.061C470.925 297.82 469.607 297.127 468.367 297.512L464.987 298.562C463.747 298.947 463.054 300.265 463.439 301.505L464.488 304.886C464.873 306.126 466.191 306.819 467.431 306.434Z" fill="#FFBB8A"/>
<path d="M444.015 313.717L447.396 312.667C448.636 312.282 449.329 310.964 448.944 309.724L447.894 306.343C447.509 305.103 446.192 304.409 444.952 304.795L441.571 305.844C440.331 306.229 439.638 307.547 440.023 308.787L441.073 312.168C441.458 313.408 442.775 314.102 444.015 313.717Z" fill="#FFBB8A"/>
<path d="M637.943 270.858L502.823 312.813L453.187 420.527C451.813 423.486 454.613 426.656 457.73 425.705L461.032 424.675C470.067 421.874 478.335 417.119 485.309 410.725L637.97 270.858H637.943Z" fill="#FFBB8A"/>
<path d="M481.082 412.627C480.792 413.261 480.713 413.896 480.739 414.503C482.298 413.314 483.83 412.073 485.283 410.725L637.943 270.858L531.142 304.015L481.082 412.601V412.627Z" fill="#FFBB8A"/>
<path d="M259.052 355.455L211.502 370.223L192.773 410.831L201.596 408.083L259.052 355.455Z" fill="#FFBB8A"/>
<path d="M236.122 239.339C238.87 234.266 246.372 230.646 255.221 230.646C257.678 230.646 260.029 230.937 262.195 231.465C263.279 228.401 266.079 225.732 269.909 223.909C272.26 212.496 287.529 203.672 306.047 203.672C320.021 203.672 332.146 208.691 338.275 216.063C341.656 214.821 345.592 214.081 349.792 214.081C362.552 214.081 372.881 220.686 372.881 228.823C372.881 229.458 372.801 230.092 372.669 230.726C373.356 230.673 374.043 230.646 374.756 230.646C383.606 230.646 391.108 234.292 393.855 239.339H236.149H236.122Z" fill="#FBFBFB"/>
<path d="M-38.6885 321.241C-35.9412 316.168 -28.4388 312.549 -19.5893 312.549C-17.1326 312.549 -14.7815 312.839 -12.6153 313.368C-11.5323 310.303 -8.73215 307.634 -4.90176 305.811C-2.5507 294.398 12.718 285.574 31.236 285.574C45.2103 285.574 57.3355 290.594 63.4641 297.965C66.8454 296.723 70.7815 295.983 74.9817 295.983C87.7408 295.983 98.0697 302.588 98.0697 310.726C98.0697 311.36 97.9904 311.994 97.8584 312.628C98.5452 312.575 99.232 312.549 99.9453 312.549C108.795 312.549 116.297 316.195 119.044 321.241H-38.662H-38.6885Z" fill="#FBFBFB"/>
<path d="M604.87 372.363C607.617 367.291 615.12 363.671 623.969 363.671C626.426 363.671 628.777 363.962 630.943 364.49C632.026 361.425 634.826 358.757 638.657 356.934C641.008 345.521 656.277 336.696 674.794 336.696C688.769 336.696 700.894 341.716 707.023 349.087C710.404 347.845 714.34 347.106 718.54 347.106C731.299 347.106 741.628 353.711 741.628 361.848C741.628 362.482 741.549 363.116 741.417 363.75C742.104 363.698 742.791 363.671 743.504 363.671C752.353 363.671 759.856 367.317 762.603 372.363H604.897H604.87Z" fill="#FBFBFB"/>
<path d="M658.839 196.776C656.065 191.65 648.457 187.952 639.476 187.952C636.992 187.952 634.589 188.242 632.396 188.771C631.313 185.653 628.46 182.958 624.577 181.109C622.173 169.511 606.693 160.581 587.911 160.581C573.725 160.581 561.441 165.68 555.207 173.156C551.773 171.888 547.784 171.149 543.531 171.149C530.587 171.149 520.099 177.859 520.099 186.102C520.099 186.763 520.179 187.397 520.311 188.031C519.624 187.978 518.911 187.952 518.197 187.952C509.216 187.952 501.608 191.65 498.834 196.776H658.865H658.839Z" fill="#FBFBFB"/>
<path d="M639.793 58.0445C641.985 54.0023 647.982 51.0961 655.035 51.0961C656.99 51.0961 658.865 51.3339 660.609 51.7302C661.481 49.2731 663.7 47.1595 666.764 45.7064C668.639 36.5915 680.844 29.5374 695.611 29.5374C706.758 29.5374 716.453 33.5532 721.34 39.4184C724.035 38.4145 727.178 37.8333 730.533 37.8333C740.704 37.8333 748.972 43.1172 748.972 49.6166C748.972 50.1185 748.893 50.6469 748.814 51.1225C749.368 51.0961 749.923 51.0697 750.478 51.0697C757.557 51.0697 763.528 53.9759 765.72 58.0181H639.793V58.0445Z" fill="#FBFBFB"/>
<path d="M440.665 39.5506C441.643 37.7541 444.284 36.4595 447.428 36.4595C448.299 36.4595 449.118 36.5652 449.911 36.7501C450.281 35.6669 451.285 34.7158 452.632 34.0817C453.477 30.0394 458.866 26.9219 465.417 26.9219C470.357 26.9219 474.663 28.692 476.829 31.3076C478.018 30.8585 479.418 30.5943 480.897 30.5943C485.415 30.5943 489.06 32.9192 489.06 35.8254C489.06 36.0632 489.034 36.2746 488.981 36.4859C489.219 36.4859 489.456 36.4859 489.72 36.4859C492.864 36.4859 495.506 37.7805 496.483 39.5771H440.639L440.665 39.5506Z" fill="#FBFBFB"/>
<path d="M960.172 314.16C957.689 309.563 950.873 306.261 942.843 306.261C940.597 306.261 938.484 306.525 936.503 307C935.525 304.2 932.989 301.796 929.502 300.158C927.363 289.775 913.494 281.769 896.693 281.769C884.013 281.769 872.997 286.314 867.424 293.024C864.333 291.888 860.793 291.228 856.963 291.228C845.392 291.228 836.014 297.225 836.014 304.623C836.014 305.204 836.094 305.785 836.199 306.34C835.592 306.287 834.958 306.287 834.324 306.287C826.293 306.287 819.478 309.59 816.994 314.187H960.198L960.172 314.16Z" fill="#FBFBFB"/>
<path d="M1035.33 617.303H-21.3064V806.787H1035.33V617.303Z" fill="#FFBB8A"/>
<path d="M1035.33 547.396H-21.3064V588.347H1035.33V547.396Z" fill="#FFBB8A"/>
<path opacity="0.1" d="M893.18 0H-36.7335V792.626H893.18V0Z" fill="#FFBB8A"/>
<g opacity="0.39">
<path d="M-48.9908 786.101H-90.3854L447.085 -41.1096H488.479L-48.9908 786.101Z" fill="#FBFBFB"/>
<path d="M631.973 786.101H590.579L1128.05 -41.1096H1169.44L631.973 786.101Z" fill="#FBFBFB"/>
<path d="M555.498 786.101H399.878L937.348 -41.1096H1092.99L555.498 786.101Z" fill="#FBFBFB"/>
<path d="M-123.802 786.101H-279.448L258.048 -41.1096H413.694L-123.802 786.101Z" fill="#FBFBFB"/>
</g>
<path d="M218.186 -91.5718H195.441V782.851H218.186V-91.5718Z" fill="#FBFBFB"/>
<path d="M803.047 -91.5718H780.302V782.851H803.047V-91.5718Z" fill="#FBFBFB"/>
<path d="M1105.17 148.533V125.257L-106.711 125.257V148.533L1105.17 148.533Z" fill="#FBFBFB"/>
</g>
<path d="M416.336 813.789C529.929 813.789 622.014 804.811 622.014 793.736C622.014 782.661 529.929 773.683 416.336 773.683C302.742 773.683 210.657 782.661 210.657 793.736C210.657 804.811 302.742 813.789 416.336 813.789Z" fill="#F5F5F5"/>
<path d="M500.578 512.178L427.536 530.619C427.536 530.619 446.398 612.521 453.741 642.534C461.27 673.261 457.096 772.124 457.096 772.124H477.992L489.298 642.164L500.604 512.204L500.578 512.178Z" fill="#236B44"/>
<path d="M484.675 379.074C484.675 379.074 492.125 404.781 504.17 448.4C504.17 448.4 519.677 454.028 561.626 457.013L560.306 470.963C560.306 470.963 514.05 479.338 488.532 468.796C463.014 458.281 441.643 364.966 484.675 379.074Z" fill="#FFA689"/>
<path d="M525.119 468.981L546.992 494.318L582.337 448.294L568.046 420.712L525.119 468.981Z" fill="#5EB083"/>
<path d="M521.288 479.602L558.404 429.827L582.337 448.294L546.992 494.318L521.288 479.602Z" fill="#5EB083"/>
<path d="M576.182 458.519C576.023 457.753 575.046 457.462 574.385 457.885C573.118 458.704 571.585 460.606 567.993 460.712C564.4 460.818 559.698 458.308 558.139 459.946C558.139 459.946 550.373 469.853 558.245 479.655C558.245 479.655 582.073 485.864 576.182 458.519Z" fill="#FFA689"/>
<path d="M469.961 453.446C469.961 453.446 488.532 450.699 503.774 437.568C503.774 437.568 498.385 408.585 490.883 391.095C483.381 373.605 471.546 358.308 452.315 369.695C433.084 381.082 438.684 407.185 469.961 453.446Z" fill="#5EB083"/>
<path d="M407.909 441.769C407.909 441.769 423.759 451.835 443.862 451.835C443.862 451.835 458.708 426.366 464.44 408.215C470.173 390.091 471.203 370.752 449.198 366.815C427.193 362.879 414.381 386.313 407.882 441.769H407.909Z" fill="#5EB083"/>
<path d="M490.513 520.051C490.513 520.051 445.367 504.807 417.392 530.038C417.392 530.038 422.517 553.737 437.971 582.085C464.07 630.038 477.437 645.546 477.437 645.546C477.437 645.546 448.986 670.857 394.172 734.133C394.172 734.133 397.606 747.078 408.648 751.226C408.648 751.226 488.981 675.454 513.205 655.242C521.13 648.637 519.518 643.67 516.401 629.034C511.118 604.252 493.63 531.333 490.54 520.051H490.513Z" fill="#236B44"/>
<path d="M452.077 332.205L451.1 352.02C451.1 352.02 466.659 364.834 479.471 364.252L485.388 337.832L449.119 313.183L452.077 332.205Z" fill="#FFA689"/>
<path d="M459.553 328.744C459.553 328.744 467.821 344.173 482.905 348.876L485.388 337.806L459.553 328.718V328.744Z" fill="#ED8A6D"/>
<path d="M427.695 601.874L390.817 573.869C388.757 572.284 388.334 569.351 389.919 567.264C391.504 565.203 394.436 564.78 396.523 566.366L433.401 594.371C435.461 595.956 435.884 598.889 434.299 600.976C432.714 603.037 429.782 603.459 427.695 601.874Z" fill="#07150E"/>
<path d="M397.025 576.986L315.953 683.776" stroke="#07150E" stroke-width="0.94" stroke-miterlimit="10"/>
<path d="M422.993 596.775L341.92 703.538" stroke="#07150E" stroke-width="0.94" stroke-miterlimit="10"/>
<path d="M419.743 382.588C419.743 382.588 380.277 384.569 373.937 406.841C367.597 429.113 368.443 516.643 368.443 516.643C368.443 516.643 376.764 536.537 403.444 539.1C403.444 539.1 417.366 542.323 416.547 513.103C415.755 483.909 419.717 382.588 419.717 382.588H419.743Z" fill="#050D08"/>
<path d="M397.527 386.895C397.527 386.895 393.565 390.356 391.451 394.9C383.711 411.544 386.089 456.432 382.813 460.051C380.066 463.063 375.417 463.618 370.82 464.886C368.865 465.415 366.567 464.173 366.673 462.271C368.416 423.883 365.458 391.941 397.527 386.895Z" fill="#18432B"/>
<path d="M368.812 470.302C368.812 470.302 379.432 467.872 381.281 470.408C383.923 474.028 382.892 515.216 379.934 516.352C377.001 517.488 366.646 516.59 366.065 515.718C363.872 512.469 362.499 471.65 368.812 470.329V470.302Z" fill="#18432B"/>
<path d="M502.348 282.535C502.348 282.535 513.284 335.772 497.038 342.271C480.792 348.77 457.017 332.205 451.205 315.349C446.239 300.976 446.767 266.842 502.348 282.535Z" fill="#FFA689"/>
<path d="M486.234 290.884C486.234 290.884 490.645 302.192 481.928 304.86C474.822 307.027 472.761 312.258 472.761 312.258C472.761 312.258 471.308 300.897 463.568 300.475C455.142 300.025 455.617 312.047 463.014 317.965C463.014 317.965 463.014 332.231 452.077 332.231C452.077 332.231 427.404 303.909 438.182 286.815C436.597 281.611 443.967 267.714 462.882 265.944C481.796 264.174 487.238 268.586 501.608 264.121C515.345 259.867 524.406 292.813 486.26 290.911L486.234 290.884Z" fill="#050D08"/>
<path opacity="0.22" d="M455.062 515.639L503.748 642.138L400.486 741.319" stroke="#FBFBFB" stroke-width="0.25" stroke-miterlimit="10"/>
<path d="M318.146 793.657C318.146 800.182 312.862 805.493 306.311 805.493C299.76 805.493 294.476 800.209 294.476 793.657C294.476 787.105 299.76 781.821 306.311 781.821C312.862 781.821 318.146 787.105 318.146 793.657Z" fill="#07150E"/>
<path d="M274.083 772.785C274.083 779.311 268.8 784.621 262.248 784.621C255.697 784.621 250.414 779.337 250.414 772.785C250.414 766.233 255.697 760.949 262.248 760.949C268.8 760.949 274.083 766.233 274.083 772.785Z" fill="#07150E"/>
<path d="M369.975 681.504C369.975 681.504 373.62 734.344 354.706 763.512C335.792 792.679 308.187 787.95 308.187 787.95L313.866 779.02C313.866 779.02 333.811 787.184 345.619 756.035C357.453 724.886 355.076 692.548 355.076 692.548L369.948 681.504H369.975Z" fill="#07150E"/>
<path d="M348.102 666.577C348.102 666.577 359.936 667.713 369.314 678.968C376.552 687.633 322.372 771.438 310.194 790.037C308.741 792.257 306.047 793.287 303.484 792.6C294.767 790.275 274.611 784.014 259.976 772.97C259.976 772.97 315.9 674.82 348.102 666.577Z" fill="#050D08"/>
<path d="M352.302 667.501C352.302 667.501 307.817 640.738 283.936 662.957C268.086 677.699 237.549 719.232 225.714 735.612C222.861 739.575 223.31 745.018 226.797 748.452C234.432 755.929 250.44 767.765 261.72 773.921C263.384 774.846 265.471 774.291 266.528 772.706C276.196 758.043 322.451 689.192 352.329 667.475L352.302 667.501Z" fill="#18432B"/>
<path d="M253.795 700.975C252.051 699.602 249.436 700.341 248.089 702.112C242.436 709.536 228.303 728.109 226.216 731.623C222.122 738.492 238.87 753.023 259.342 763.829C265.735 767.21 273.555 752.547 281.796 741.319C287.238 733.895 291.94 727.369 291.333 724.965C290.646 722.376 280 719.047 270.252 713.023C263.886 709.06 258.444 704.648 253.795 701.002V700.975Z" fill="#236B44"/>
<path d="M352.302 667.501C352.302 667.501 332.199 653.261 303.696 652.812C279.472 652.442 252.87 694.37 252.87 694.37C249.436 698.783 290.937 723.934 295.559 718.201C313.893 695.612 331.829 678.466 340.969 670.196C341.603 669.668 346.517 665.705 352.329 667.501H352.302Z" fill="#236B44"/>
<path d="M276.91 768.505L301.688 731.121C302.586 729.773 304.356 729.271 305.809 729.984L330.059 741.477C331.592 742.217 332.12 744.119 331.195 745.546L307.183 781.953C305.809 784.04 303.115 784.885 300.79 783.908L278.812 774.74C276.355 773.71 275.457 770.724 276.91 768.505Z" fill="#103F26"/>
<path d="M445.579 354.53C445.579 354.53 421.328 358.916 417.392 395.19C413.456 431.465 417.392 534.133 417.392 534.133C417.392 534.133 440.11 542.931 465.866 530.382C482.456 522.297 493.049 521.848 497.54 520.844C499.363 520.421 500.631 518.862 500.657 516.987C500.71 513.024 500.763 505.415 500.736 493.948C500.657 461.901 497.196 407.37 483.407 369.959C483.407 369.959 460.002 355.666 445.605 354.53H445.579Z" fill="#5EB083"/>
<path d="M461.931 420.791C441.696 419.787 426.717 427.898 415.649 440.342C415.438 483.142 417.392 534.133 417.392 534.133C417.392 534.133 430.918 539.338 448.881 535.982C436.016 516.3 435.91 498.255 447.032 476.115C455.934 458.413 461.931 420.791 461.931 420.791Z" fill="#5EB083"/>
<path d="M417.392 395.19C417.392 395.19 436.623 363.883 450.703 369.167C468.006 375.666 471.52 409.114 445.579 444.147L431.763 458.757L428.223 471.755C428.223 471.755 463.41 440.712 471.678 410.54C479.947 380.369 469.089 368.4 453.926 363.222C435.303 356.855 426.374 368.215 415.015 383.909L417.366 395.137L417.392 395.19Z" fill="#050D08"/>
<path d="M414.222 427.528C414.222 427.528 408.305 453.156 406.35 485.494C404.686 512.68 404.422 546.154 404.395 556.114C404.395 557.832 403.735 559.47 402.52 560.659C399.297 563.829 393.089 571.676 394.146 584.252C394.516 588.664 396.444 594.767 407.407 598.281C408.913 598.756 412.875 600.421 412.875 592.733C412.875 585.044 415.992 579.866 419.136 577.303C422.279 574.741 425.502 581.504 425.502 586.999C425.502 592.495 429.201 589.007 429.94 585.097C430.68 581.187 430.099 570.672 421.804 559.734C421.804 559.734 421.645 557.805 422.702 544.648C423.732 531.491 425.951 486.947 430.68 475.56C435.408 464.173 449.013 431.703 449.013 431.703L414.275 427.502L414.222 427.528Z" fill="#FFA689"/>
<path d="M407.909 444.305C407.909 444.305 423.759 451.835 443.862 451.835C443.862 451.835 458.708 426.366 464.44 408.215C470.173 390.091 471.203 370.752 449.198 366.815C427.193 362.879 414.381 388.85 407.882 444.305H407.909Z" fill="#5EB083"/>
<path d="M457.493 769.958C457.493 769.958 451.681 778.412 454.534 790.645C454.957 792.468 456.515 793.709 458.232 793.709H520.998C522.292 793.709 523.323 792.494 523.164 791.12C522.741 787.554 519.809 781.345 504.884 779.522C500.789 779.02 496.88 777.488 493.63 774.951C488.268 770.751 480.079 764.991 477.252 766.576C477.252 766.576 468.244 772.019 457.466 769.958H457.493Z" fill="#050D08"/>
<path d="M451.311 347.687C449.066 347.767 445.552 354.53 445.552 354.53C445.552 354.53 452.209 359.656 468.35 365.574C475.826 368.321 479.577 372.179 481.294 374.609C481.822 375.349 482.958 375.058 483.064 374.16C483.539 370.567 483.75 364.253 480.237 360.607C480.237 360.607 457.994 354.53 451.258 347.687H451.311Z" fill="#236B44"/>
<path d="M394.489 734.317C394.489 734.317 384.319 735.612 377.054 745.863C375.971 747.369 376.077 749.377 377.239 750.671L418.977 797.567C419.849 798.544 421.434 798.492 422.359 797.461C424.736 794.766 427.404 788.452 418.898 776.087C416.547 772.706 415.094 768.769 414.83 764.647C414.407 757.831 413.271 747.897 410.181 746.84C410.181 746.84 400.142 743.723 394.516 734.317H394.489Z" fill="#050D08"/>
<path d="M420.377 584.49L430.257 591.993L429.438 596.379L417.921 590.619L420.377 584.49Z" fill="#07150E"/>
<path d="M150.586 675.11C150.586 677.937 135.132 680.236 116.059 680.236C96.9867 680.236 81.5331 677.937 81.5331 675.11C81.5331 672.283 96.9867 669.985 116.059 669.985C135.132 669.985 150.586 672.283 150.586 675.11Z" fill="#103F26"/>
<path d="M116.059 799.469C151.891 799.469 180.938 796.122 180.938 791.992C180.938 787.863 151.891 784.516 116.059 784.516C80.2278 784.516 51.1805 787.863 51.1805 791.992C51.1805 796.122 80.2278 799.469 116.059 799.469Z" fill="#F5F5F5"/>
<path d="M124.46 684.119C124.46 684.119 117.301 662.561 126.441 652.812C135.581 643.063 120.947 626.603 142.608 617.33C164.27 608.03 163.53 586.313 182.365 586.233C201.226 586.128 216.046 577.356 222.201 585.679C228.356 594.001 199.773 598.043 199.72 612.178C199.668 626.312 196.868 627.66 189.154 636.484C184.822 641.425 186.829 652.336 177.214 662.931C169.685 671.226 149.846 668.426 124.46 684.119Z" fill="#236B44"/>
<path d="M124.46 684.119C124.46 684.119 133.494 662.481 154.284 651.042C175.074 639.575 167.73 592.944 222.227 585.678" stroke="#FBFBFB" stroke-width="0.4" stroke-linecap="round" stroke-linejoin="round"/>
<path d="M128.713 694.37C128.713 694.37 124.909 663.538 131.883 638.756C138.857 613.974 127.445 606.048 107.923 599.628C88.375 593.235 100.659 572.812 94.847 553.763C89.0354 534.714 74.4006 564.305 69.54 538.387C64.6794 512.469 57.2827 499.074 51.3655 500.183C45.4482 501.293 43.467 507.026 39.2667 536.669C35.0401 566.313 14.4616 564.12 32.3192 587.634C50.1767 611.121 54.7204 604.49 44.8142 624.886C23.6282 668.452 99.4699 655.559 128.739 694.37H128.713Z" fill="#5EB083"/>
<path d="M128.713 694.371C128.713 694.371 118.992 642.508 90.9639 616.907C62.936 591.306 44.3651 563.909 51.3655 500.21" stroke="#FBFBFB" stroke-width="0.48" stroke-linecap="round" stroke-linejoin="round"/>
<path d="M118.965 690.143C118.965 690.143 88.5334 609.509 67.5852 614.582C46.6369 619.681 44.5235 620.738 25.4508 605.467C6.35171 590.196 -7.5169 606.867 7.09142 619.1C21.6997 631.332 22.2016 632.442 8.28011 645.89C-5.64138 659.364 27.5642 674.423 56.7808 669.905C85.9975 665.361 114.395 683.459 118.965 690.143Z" fill="#236B44"/>
<path d="M118.965 690.143C118.965 690.143 104.7 660.156 66.2644 652.389C27.8284 644.621 45.7916 619.285 1.01562 607.554" stroke="#FBFBFB" stroke-width="0.44" stroke-linecap="round" stroke-linejoin="round"/>
<path d="M116.06 680.262C100.078 680.262 86.6844 678.651 82.7219 676.458C86.6316 681.53 99.1794 704.119 106.629 791.015C106.629 792.283 110.855 793.287 116.06 793.287C121.264 793.287 125.49 792.257 125.49 791.015C132.94 704.119 145.487 681.53 149.397 676.458C145.461 678.651 132.042 680.262 116.06 680.262Z" fill="#FFBB8A"/>
</svg>
